<svg width="32" height="32" viewBox="0 0 32 32" fill="none" xmlns="http://www.w3.org/2000/svg"> <path d="M7 7.00016C7 3.87083 9.53733 1.3335 12.6667 1.3335V1.3335C15.796 1.3335 18.3333 3.87083 18.3333 7.00016" stroke="url(#paint0_linear_516_6255)" stroke-width="2" stroke-linecap="round" stroke-linejoin="round"> </path> <path d="M18.6665 16.0003V13.667C18.6665 12.563 17.7705 11.667 16.6665 11.667V11.667C15.5625 11.667 14.6665 12.563 14.6665 13.667" stroke="url(#paint1_linear_516_6255)" stroke-width="2" stroke-linecap="round" stroke-linejoin="round"> </path> <path d="M18.6665 15C18.6665 13.896 19.5625 13 20.6665 13V13C21.7705 13 22.6665 13.896 22.6665 15V17.3333" stroke="url(#paint2_linear_516_6255)" stroke-width="2" stroke-linecap="round" stroke-linejoin="round"> </path> <path d="M14.6666 16V7C14.6666 5.896 13.7706 5 12.6666 5V5C11.5626 5 10.6666 5.896 10.6666 7V18.6667L8.15458 16.1547C7.33325 15.3333 5.99992 15.3333 5.17858 16.1547V16.1547C4.49325 16.84 4.38658 17.9133 4.92392 18.72L9.62525 25.7707C11.1092 27.996 13.6066 29.3333 16.2812 29.3333H18.6666C23.0852 29.3333 26.6666 25.752 26.6666 21.3333V16.3333C26.6666 15.2293 25.7706 14.3333 24.6666 14.3333V14.3333C23.5626 14.3333 22.6666 15.2293 22.6666 16.3333" stroke="url(#paint3_linear_516_6255)" stroke-width="2" stroke-linecap="round" stroke-linejoin="round"> </path> <defs> <linearGradient id="paint0_linear_516_6255" x1="14.1789" y1="8.63241" x2="5.79608" y2="1.99069" gradientUnits="userSpaceOnUse"> <stop stop-color="#B054CE"></stop> <stop offset="1" stop-color="#055DFD"></stop> </linearGradient> <linearGradient id="paint1_linear_516_6255" x1="17.2002" y1="17.2485" x2="12.9524" y2="15.6952" gradientUnits="userSpaceOnUse"> <stop stop-color="#B054CE"></stop> <stop offset="1" stop-color="#055DFD"></stop> </linearGradient> <linearGradient id="paint2_linear_516_6255" x1="21.2002" y1="18.5815" x2="16.9524" y2="17.0282" gradientUnits="userSpaceOnUse"> <stop stop-color="#B054CE"></stop> <stop offset="1" stop-color="#055DFD"></stop> </linearGradient> <linearGradient id="paint3_linear_516_6255" x1="18.5713" y1="36.3424" x2="-4.97359" y2="27.8773" gradientUnits="userSpaceOnUse"> <stop stop-color="#B054CE"></stop> <stop offset="1" stop-color="#055DFD"></stop> </linearGradient> </defs> </svg>