<svg width="18" height="18" viewBox="0 0 18 18" fill="none" xmlns="http://www.w3.org/2000/svg"><path d="M9 1.125C6.7025 1.125 4.83333 2.98433 4.83333 5.26974C4.83333 7.55514 6.7025 9.41447 9 9.41447C11.2975 9.41447 13.1667 7.55514 13.1667 5.26974C13.1667 2.98433 11.2975 1.125 9 1.125ZM9 7.75658C7.62167 7.75658 6.5 6.64082 6.5 5.26974C6.5 3.89866 7.62167 2.78289 9 2.78289C10.3783 2.78289 11.5 3.89866 11.5 5.26974C11.5 6.64082 10.3783 7.75658 9 7.75658ZM15.6667 16.875C16.1245 16.875 16.5 16.5039 16.5 16.0461C16.5 12.8471 13.8825 10.2434 10.6667 10.2434H7.33333C4.11667 10.2434 1.5 12.8471 1.5 16.0461C1.5 16.5039 1.87552 16.875 2.33333 16.875C2.79115 16.875 3.16667 16.5039 3.16667 16.0461C3.16667 13.7606 5.03583 11.9013 7.33333 11.9013H10.6667C12.9642 11.9013 14.8333 13.7606 14.8333 16.0461C14.8333 16.5039 15.2089 16.875 15.6667 16.875Z" fill="#1369BF"></path></svg>