<svg width="32" height="32" viewBox="0 0 32 32" fill="none" xmlns="http://www.w3.org/2000/svg"> <path d="M13.332 18.6668L18.6654 13.3335" stroke="#1369BF" stroke-width="2" stroke-linecap="round" stroke-linejoin="round"></path> <path d="M22.6667 22.6667L25.3334 20" stroke="#1369BF" stroke-width="2" stroke-linecap="round" stroke-linejoin="round"></path> <path d="M25.3334 26.6667V20" stroke="#1369BF" stroke-width="2" stroke-linecap="round" stroke-linejoin="round"></path> <path d="M20 28H10.6667C6.98477 28 4 25.0152 4 21.3333V10.6667C4 6.98477 6.98477 4 10.6667 4H21.3333C25.0152 4 28 6.98477 28 10.6667V14.6667" stroke="#1369BF" stroke-width="2" stroke-linecap="round" stroke-linejoin="round"></path> <path d="M27.9999 22.6667L25.3333 20" stroke="#1369BF" stroke-width="2" stroke-linecap="round" stroke-linejoin="round"></path> <path d="M19 18.8333C18.9996 18.9249 18.9252 18.9989 18.8336 18.9987C18.742 18.9986 18.6679 18.9243 18.6679 18.8327C18.6679 18.7411 18.742 18.6668 18.8336 18.6666C18.9252 18.6665 18.9996 18.7405 19 18.8321V18.8333" stroke="#1369BF" stroke-width="2" stroke-linecap="round" stroke-linejoin="round"></path> <path d="M12.9999 13.1665C13.0002 13.075 13.0747 13.0009 13.1662 13.0011C13.2578 13.0013 13.332 13.0756 13.332 13.1672C13.332 13.2587 13.2578 13.333 13.1662 13.3332C13.0747 13.3334 13.0002 13.2594 12.9999 13.1678V13.1665" stroke="#1369BF" stroke-width="2" stroke-linecap="round" stroke-linejoin="round"></path> </svg>