<svg width="32" height="33" viewBox="0 0 32 33" fill="none" xmlns="http://www.w3.org/2000/svg"> <path d="M20.0019 4.5083V13.8322" stroke="#1369BF" stroke-width="2" stroke-linecap="round" stroke-linejoin="round"></path> <path d="M11.9985 6.86914V25.837" stroke="#1369BF" stroke-width="2" stroke-linecap="round" stroke-linejoin="round"></path> <path d="M28.0051 15.1661V7.9804C28.0051 7.4055 27.6383 6.89595 27.0927 6.71454L20.8448 4.63234C20.2979 4.4496 19.7057 4.4496 19.1574 4.63101L12.8415 6.73588C12.2932 6.91863 11.7023 6.91863 11.1541 6.73588L5.75051 4.93513C4.88749 4.64701 3.99512 5.28995 3.99512 6.20099V21.326C3.99512 21.8315 4.28057 22.293 4.73276 22.5198L10.806 25.5557C11.5569 25.9319 12.4413 25.9319 13.1923 25.5557L16.0001 24.1511" stroke="#1369BF" stroke-width="2" stroke-linecap="round" stroke-linejoin="round"></path> <path d="M29.339 27.1711L26.854 24.686" stroke="#1369BF" stroke-width="2" stroke-linecap="round" stroke-linejoin="round"></path> <path d="M24.0034 17.834C26.2136 17.834 28.005 19.6254 28.005 21.8357C28.005 24.0459 26.2136 25.8373 24.0034 25.8373C21.7931 25.8373 20.0017 24.0459 20.0017 21.8357C20.0017 19.6254 21.7931 17.834 24.0034 17.834" stroke="#1369BF" stroke-width="2" stroke-linecap="round" stroke-linejoin="round"></path> </svg>