<svg width="18" height="19" viewBox="0 0 18 19" fill="none" xmlns="http://www.w3.org/2000/svg"> <title>Телефон</title> <path d="M9.75 6.5C10.3467 6.5 10.919 6.73705 11.341 7.15901C11.7629 7.58097 12 8.15326 12 8.75C12 8.94891 12.079 9.13968 12.2197 9.28033C12.3603 9.42098 12.5511 9.5 12.75 9.5C12.9489 9.5 13.1397 9.42098 13.2803 9.28033C13.421 9.13968 13.5 8.94891 13.5 8.75C13.5 7.75544 13.1049 6.80161 12.4017 6.09835C11.6984 5.39509 10.7446 5 9.75 5C9.55109 5 9.36032 5.07902 9.21967 5.21967C9.07902 5.36032 9 5.55109 9 5.75C9 5.94891 9.07902 6.13968 9.21967 6.28033C9.36032 6.42098 9.55109 6.5 9.75 6.5Z" fill="#004B94"></path> <path d="M9.75 3.5C11.1424 3.5 12.4777 4.05312 13.4623 5.03769C14.4469 6.02226 15 7.35761 15 8.75C15 8.94891 15.079 9.13968 15.2197 9.28033C15.3603 9.42098 15.5511 9.5 15.75 9.5C15.9489 9.5 16.1397 9.42098 16.2803 9.28033C16.421 9.13968 16.5 8.94891 16.5 8.75C16.5 6.95979 15.7888 5.2429 14.523 3.97703C13.2571 2.71116 11.5402 2 9.75 2C9.55109 2 9.36032 2.07902 9.21967 2.21967C9.07902 2.36032 9 2.55109 9 2.75C9 2.94891 9.07902 3.13968 9.21967 3.28033C9.36032 3.42098 9.55109 3.5 9.75 3.5ZM16.3125 12.4325C16.2713 12.3121 16.2 12.2042 16.1056 12.1189C16.0111 12.0336 15.8965 11.9738 15.7725 11.945L11.2725 10.9175C11.1504 10.8898 11.0232 10.8931 10.9027 10.9272C10.7822 10.9613 10.6721 11.025 10.5825 11.1125C10.4775 11.21 10.47 11.2175 9.9825 12.1475C8.3649 11.4021 7.06875 10.1006 6.33 8.48C7.2825 8 7.29 8 7.3875 7.8875C7.47503 7.79792 7.53874 7.68784 7.5728 7.56731C7.60686 7.44679 7.6102 7.31965 7.5825 7.1975L6.555 2.75C6.52624 2.62602 6.46639 2.5114 6.38111 2.41693C6.29582 2.32246 6.1879 2.25125 6.0675 2.21C5.89235 2.14744 5.71148 2.10223 5.5275 2.075C5.33794 2.03105 5.1445 2.00592 4.95 2C4.035 2 3.15748 2.36348 2.51048 3.01048C1.86348 3.65748 1.5 4.535 1.5 5.45C1.50397 8.51203 2.72212 11.4475 4.8873 13.6127C7.05249 15.7779 9.98797 16.996 13.05 17C13.5031 17 13.9517 16.9108 14.3703 16.7374C14.7888 16.564 15.1692 16.3099 15.4895 15.9895C15.8099 15.6692 16.064 15.2888 16.2374 14.8703C16.4108 14.4517 16.5 14.0031 16.5 13.55C16.5002 13.3591 16.4852 13.1685 16.455 12.98C16.4235 12.7937 16.3758 12.6105 16.3125 12.4325ZM13.05 15.5C10.3852 15.498 7.83008 14.4385 5.94577 12.5542C4.06146 10.6699 3.00199 8.11482 3 5.45C3.00198 4.93344 3.20806 4.43859 3.57332 4.07332C3.93859 3.70806 4.43344 3.50198 4.95 3.5H5.1975L6 6.98L5.595 7.19C4.95 7.5275 4.44 7.7975 4.71 8.3825C5.14967 9.62718 5.86108 10.7583 6.79255 11.6937C7.72402 12.629 8.85216 13.3451 10.095 13.79C10.725 14.045 10.9725 13.5725 11.31 12.92L11.5275 12.5075L15 13.3025V13.55C14.998 14.0666 14.7919 14.5614 14.4267 14.9267C14.0614 15.2919 13.5666 15.498 13.05 15.5Z" fill="#004B94"></path> </svg>