<svg width="32" height="32" viewBox="0 0 32 32" fill="none" xmlns="http://www.w3.org/2000/svg"> <path d="M28.005 16C28.005 22.6302 22.6302 28.005 16 28.005" stroke="#1369BF" stroke-width="2" stroke-linecap="round" stroke-linejoin="round"></path> <path d="M3.99512 16.0001C3.99512 9.36994 9.36994 3.99512 16.0001 3.99512" stroke="#1369BF" stroke-width="2" stroke-linecap="round" stroke-linejoin="round"></path> <path d="M3.99512 16.0003C3.9953 17.4065 4.24541 18.8014 4.73377 20.1201C4.95712 20.7325 5.58681 21.0973 6.22919 20.9864L7.54466 20.7544C8.60787 20.5669 9.33062 19.5698 9.17794 18.501L8.78202 15.7296C8.70536 15.1931 8.41434 14.7106 7.97551 14.3925C7.53668 14.0745 6.9876 13.948 6.45386 14.0421L4.10543 14.4562" stroke="#1369BF" stroke-width="2" stroke-linecap="round" stroke-linejoin="round"></path> <path d="M28.005 16.0001C28.005 9.36994 22.6302 3.99512 16 3.99512" stroke="#1369BF" stroke-width="2" stroke-linecap="round" stroke-linejoin="round"></path> <path d="M28.0052 16.0003C28.005 17.4065 27.7549 18.8014 27.2665 20.1201C27.0432 20.7325 26.4135 21.0973 25.7711 20.9864L24.4556 20.7544C23.3924 20.5669 22.6697 19.5698 22.8223 18.501L23.2183 15.7296C23.2949 15.1931 23.5859 14.7106 24.0248 14.3925C24.4636 14.0745 25.0127 13.948 25.5464 14.0421L27.8949 14.4562" stroke="#1369BF" stroke-width="2" stroke-linecap="round" stroke-linejoin="round"></path> <path d="M17.9909 16.655C17.9869 16.655 17.9833 16.6575 17.9817 16.6612C17.9802 16.6649 17.981 16.6692 17.9839 16.672C17.9867 16.6749 17.991 16.6757 17.9947 16.6742C17.9984 16.6727 18.0009 16.669 18.0009 16.665C18.001 16.6623 18 16.6597 17.9981 16.6578C17.9962 16.6559 17.9936 16.6549 17.9909 16.655" stroke="#1369BF" stroke-width="2" stroke-linecap="round" stroke-linejoin="round"></path> <path d="M14.0092 16.6589C14.0052 16.6589 14.0016 16.6614 14 16.6651C13.9985 16.6688 13.9993 16.6731 14.0022 16.676C14.005 16.6788 14.0093 16.6797 14.013 16.6781C14.0168 16.6766 14.0192 16.6729 14.0192 16.6689C14.0194 16.6662 14.0184 16.6636 14.0165 16.6617C14.0146 16.6597 14.0119 16.6588 14.0092 16.6589" stroke="#1369BF" stroke-width="2" stroke-linecap="round" stroke-linejoin="round"></path> </svg>