<svg width="32" height="32" viewBox="0 0 32 32" fill="none" xmlns="http://www.w3.org/2000/svg"> <path d="M20.9625 9.70409C21.0931 9.83476 21.0931 10.0454 20.9625 10.1761C20.8318 10.3068 20.6211 10.3068 20.4905 10.1761C20.3598 10.0454 20.3598 9.83476 20.4905 9.70409C20.6211 9.57476 20.8318 9.57476 20.9625 9.70409" stroke="#1369BF" stroke-width="2" stroke-linecap="round" stroke-linejoin="round"></path> <path fill-rule="evenodd" clip-rule="evenodd" d="M18.0159 4H23.8626C25.4119 4 26.6666 5.25467 26.6666 6.80267V12.6493C26.6666 13.3933 26.3706 14.1053 25.8452 14.632L14.6319 25.8453C13.5372 26.94 11.7626 26.94 10.6679 25.8453L4.82124 19.9987C3.72658 18.904 3.72658 17.1293 4.82124 16.0347L16.0346 4.82133C16.5599 4.296 17.2732 4 18.0159 4Z" stroke="#1369BF" stroke-width="2" stroke-linecap="round" stroke-linejoin="round"></path> <path d="M18.6665 28H23.9998C25.4732 28 26.6665 26.8067 26.6665 25.3333V20" stroke="#1369BF" stroke-width="2" stroke-linecap="round" stroke-linejoin="round"></path> </svg>