<svg width="32" height="32" viewBox="0 0 32 32" fill="none" xmlns="http://www.w3.org/2000/svg"> <path fill-rule="evenodd" clip-rule="evenodd" d="M7.0825 14.0205L18.5437 18.1922C18.8756 18.313 19.242 18.297 19.5621 18.1477C19.8822 17.9984 20.1299 17.7281 20.2507 17.3961L21.523 13.9003C21.7295 13.3329 22.2941 12.9774 22.8951 13.0363L28.0103 13.5385C28.3709 13.5739 28.7097 13.3606 28.8336 13.0201L29.2854 11.7789C29.4353 11.3671 29.2229 10.9117 28.8111 10.7618L10.6767 4.16137C9.29426 3.6582 7.76563 4.37101 7.26245 5.75349L5.49545 10.608C5.25285 11.271 5.28382 12.0032 5.58151 12.6433C5.87921 13.2834 6.4192 13.7789 7.0825 14.0205Z" stroke="#1369BF" stroke-width="2" stroke-linecap="round" stroke-linejoin="round"></path> <path fill-rule="evenodd" clip-rule="evenodd" d="M4 18.6665H6.66667C7.40305 18.6665 8 19.2635 8 19.9998V25.3332C8 26.0696 7.40305 26.6665 6.66667 26.6665H4V18.6665Z" stroke="#1369BF" stroke-width="2" stroke-linecap="round" stroke-linejoin="round"></path> <path d="M13.3333 16.2959V21.3335C13.3333 22.0699 12.7364 22.6668 12 22.6668H8" stroke="#1369BF" stroke-width="2" stroke-linecap="round" stroke-linejoin="round"></path> <path d="M13.3334 8.97081L10.6667 8.00021" stroke="#1369BF" stroke-width="2" stroke-linecap="round" stroke-linejoin="round"></path> <path d="M26.7399 13.4141L25.6002 16.5451C25.3997 17.0961 24.9885 17.5448 24.4571 17.7925C23.9257 18.0403 23.3177 18.0668 22.7668 17.8663L20.3938 17.0025" stroke="#1369BF" stroke-width="2" stroke-linecap="round" stroke-linejoin="round"></path> </svg>